<svg xmlns="http://www.w3.org/2000/svg" viewBox="0 0 128 128">
  <defs>
    <linearGradient id="bg" x1="0" y1="0" x2="1" y2="1">
      <stop offset="0%" stop-color="#fff8ef" />
      <stop offset="100%" stop-color="#f2e0c7" />
    </linearGradient>
    <linearGradient id="accent" x1="0" y1="0" x2="1" y2="1">
      <stop offset="0%" stop-color="#cc5a2d" />
      <stop offset="100%" stop-color="#8f3410" />
    </linearGradient>
  </defs>

  <rect x="8" y="8" width="112" height="112" rx="24" fill="url(#bg)" />
  <rect x="20" y="20" width="88" height="88" rx="14" fill="#fffdf8" stroke="#5f5447" stroke-width="2.5" />

  <g stroke="#5f5447" stroke-opacity="0.35" stroke-width="1">
    <line x1="49.3" y1="20" x2="49.3" y2="108" />
    <line x1="78.6" y1="20" x2="78.6" y2="108" />
    <line x1="20" y1="49.3" x2="108" y2="49.3" />
    <line x1="20" y1="78.6" x2="108" y2="78.6" />
  </g>

  <g stroke="#5f5447" stroke-width="2.5">
    <line x1="20" y1="20" x2="20" y2="108" />
    <line x1="108" y1="20" x2="108" y2="108" />
    <line x1="20" y1="20" x2="108" y2="20" />
    <line x1="20" y1="108" x2="108" y2="108" />
    <line x1="20" y1="49.3" x2="108" y2="49.3" />
    <line x1="20" y1="78.6" x2="108" y2="78.6" />
    <line x1="49.3" y1="20" x2="49.3" y2="108" />
    <line x1="78.6" y1="20" x2="78.6" y2="108" />
  </g>

  <rect x="49.3" y="49.3" width="29.3" height="29.3" rx="7" fill="url(#accent)" />
  <text x="64" y="64.5" text-anchor="middle" dominant-baseline="middle" font-size="17" font-weight="700" fill="#fffaf3" font-family="Georgia, 'Times New Roman', serif">5</text>
</svg>
